<svg version="1.1" id="Layer_1" xmlns="http://www.w3.org/2000/svg" x="0" y="0" viewBox="0 0 513 249" xml:space="preserve"><style type="text/css">.st0{fill:#183a66}</style><path class="st0" d="M20.5 239.9h-7.9v-63.5h7.9v63.5zm16.2-66.5l47.7 49.9v-46.9h7.9v66.1l-47.7-49.9v47.3h-7.9v-66.5zm89 66.5h-7.9v-56.2h-15.1v-7.2h38.1v7.2h-15.1v56.2zm26.3-63.5h34.1v7.2H160v17.8h25.4v7.2H160v24h26.2v7.2H152v-63.4zm88.5 63.5h-9.6L212.2 213h-3.3v26.9H201v-63.5h9.6c5.6 0 11.7.1 16.8 2.9 5.3 3.1 8.3 9.1 8.3 15.2 0 9.1-6.1 16.7-15.2 17.8l20 27.6zm-31.6-33.4h2.5c8.1 0 16.8-1.5 16.8-11.6 0-9.9-9.4-11.4-17.3-11.4h-2.1v23zM362.8 224l-7.2 15.9h-8.5l30.3-66.2 30.3 66.2h-8.5L392 224h-29.2zm14.6-32.9l-11.3 25.7h22.6l-11.3-25.7zm84.3-2.6c-4.5-4-10.8-6.2-16.8-6.2-14.2 0-25.1 11.9-25.1 25.9 0 13.9 10.8 25.8 24.9 25.8 6.2 0 12.2-2.4 16.9-6.6v9.3c-4.9 2.9-11.1 4.5-16.7 4.5-18.1 0-33.1-14.4-33.1-32.8 0-18.8 15.1-33.4 33.8-33.4 5.6 0 11.2 1.3 16 4.3v9.2zm29.1 51.4h-7.9v-56.2h-15.1v-7.2h38.1v7.2h-15.1v56.2zM301 187.4l15.9 9.9-15.9 9.9z"/><path class="st0" d="M272 194h31v7h-31zm15 37.8l-15.9-9.9L287 212z"/><path class="st0" d="M285 219h32v6h-32zM35.1 155.8l-2.9-.7L70 6.4l2.8-.2 28.9 71.9L120.6 45l2.7.2 38 93.2 169.7-.2v-27.4l.5-1.1 15.7-14.1 1.9-.1 20.3 14.9.6 1.2V145h11V63.8l5.9-41.4h3l5.1 41.9v43.1l5.7-20.1h2.9L413 117l.1.5V145h8v-32.7l.5-1.1 18-17.3L442 95v12.3l13.1-12.5 2.5 1 .3 10.4 13.3-12 2.5 1 1.5 13.9h.7l2.1-61.7c.6-4.7 1.7-5.4 2.8-5.5 1.7-.1 2.5 1.9 3.3 5.6V154h-3V48.1c0-.1-.1-.3-.1-.4v.1l-2.1 63.1-1.6 1.4-3.5-.2-1.4-1.3-1.4-12.3-13.6 12.2-2.5-1.1-.3-10.3-13.2 12.5-2.5-1.1V98.5l-15 14.4v33.6l-1.5 1.5h-11l-1.5-1.5v-28.9l-7.8-24.7-7.3 25.6-2.9-.4V64.3L388.3 34 384 64.1v82.4l-1.5 1.5h-14l-1.5-1.5v-34.2l-18.7-13.7-14.3 12.9v28.2l-1.5 1.5-172.2.2-1.4-.9-37.2-91.3-18.9 33.1-2.7-.2-28.3-70.6-36.7 144.3z"/></svg>